<svg version="1.2" xmlns="http://www.w3.org/2000/svg" viewBox="0 0 67 21" width="67" height="21">
	<title>logo</title>
	<defs>
		<clipPath clipPathUnits="userSpaceOnUse" id="cp1">
			<path d="m26.44 7.16c1.75 0 3.18 0.62 4.17 1.72 0.99 1.11 1.53 2.68 1.53 4.59v0.98h-8.77v0.04c0 1.06 0.32 1.93 0.88 2.53 0.56 0.6 1.36 0.95 2.35 0.95 1.42 0 2.44-0.71 2.76-1.74l0.03-0.08h2.63l-0.02 0.13c-0.37 2.33-2.58 3.97-5.46 3.97-1.85 0-3.34-0.62-4.37-1.76-1.03-1.13-1.59-2.75-1.59-4.73 0-1.97 0.57-3.62 1.59-4.78 1.02-1.16 2.49-1.82 4.27-1.82zm9.66 2.13c0.8-1.32 2.18-2.1 3.87-2.1 1.59 0 2.92 0.63 3.84 1.77 0.92 1.13 1.43 2.76 1.43 4.74 0 1.99-0.51 3.62-1.43 4.76-0.92 1.13-2.25 1.77-3.85 1.77-1.74 0-3.12-0.8-3.93-2.11v1.9h-2.7v-17.25h2.77zm30.9 10.73h-2.7v-1.89c-0.78 1.29-2.16 2.1-3.89 2.1-1.6 0-2.93-0.64-3.87-1.78-0.93-1.14-1.45-2.77-1.45-4.75 0-1.97 0.52-3.6 1.45-4.74 0.93-1.14 2.26-1.77 3.85-1.77 1.69 0 3.07 0.79 3.83 2.04v-6.45h2.78zm-64-17.16l3.09 13.09 3.54-13.09 0.02-0.09h2.62l0.02 0.09 3.55 13.09 3.09-13.09 0.02-0.09h2.98l-0.03 0.14-4.61 17.03-0.02 0.08h-2.65l-0.03-0.08-3.63-12.67-3.62 12.67-0.02 0.08h-2.67l-0.02-0.08-4.59-17.03-0.04-0.14h2.98zm50.91 17.16h-2.77v-17.24h2.77zm-4.87-0.03h-2.77v-12.63h2.77zm11.87-2.03q0.09 0 0.18 0zm-21.64-8.4c-0.93 0-1.72 0.41-2.29 1.13-0.56 0.72-0.89 1.76-0.89 3.02 0 1.27 0.33 2.31 0.89 3.03 0.57 0.71 1.36 1.12 2.29 1.12 0.97 0 1.75-0.4 2.28-1.1 0.55-0.71 0.85-1.75 0.85-3.05 0-1.29-0.3-2.33-0.85-3.04-0.53-0.71-1.31-1.11-2.28-1.11zm21.81 0c-0.97 0-1.76 0.4-2.31 1.11-0.54 0.71-0.86 1.75-0.86 3.04 0 1.29 0.32 2.33 0.86 3.04 0.55 0.71 1.34 1.11 2.31 1.11 0.95 0 1.73-0.4 2.28-1.12 0.56-0.71 0.88-1.75 0.88-3.03 0-1.27-0.32-2.31-0.88-3.03-0.55-0.71-1.33-1.12-2.28-1.12zm-19.79 7.65q-0.01 0.01-0.03 0.03 0.02-0.02 0.03-0.03zm0.13-0.13h0.01q-0.07 0.07-0.14 0.13 0.07-0.06 0.13-0.13zm16.38-3.37q0 0.45 0.05 0.87-0.02-0.19-0.03-0.39l-0.02-0.48q0.01-0.06 0.01-0.12-0.01 0.06-0.01 0.12zm-12.67 0q0 0.04 0 0.09v-0.09q0-0.23-0.01-0.45zm0 0.36v-0.15q0 0.11-0.01 0.21 0.01-0.03 0.01-0.06zm0-0.15q0-0.06 0-0.12zm-18.69-4.47c-1.68 0-2.87 1.24-3.04 3.01h5.96c-0.05-0.88-0.35-1.62-0.84-2.15-0.5-0.54-1.22-0.86-2.08-0.86zm32.25 1.15l0.11-0.13q0.08-0.09 0.16-0.17-0.14 0.14-0.27 0.3zm0.89-0.77q-0.31 0.17-0.56 0.41 0.07-0.07 0.14-0.13 0.13-0.1 0.27-0.19 0.07-0.05 0.15-0.09zm-0.56 0.41q-0.02 0.02-0.03 0.03 0.01-0.01 0.03-0.03zm-32.75-0.9q0 0 0 0 0 0 0 0zm0.17 0h0.09q-0.05 0-0.09-0.01-0.09 0.01-0.17 0.01 0.08 0 0.17 0zm34.25 8.61q0.09 0.01 0.18 0.01-0.09 0-0.18-0.01zm-0.25-0.04q0.11 0.02 0.21 0.03-0.1-0.01-0.21-0.03zm-2.58-3.28q0.02 0.16 0.05 0.31-0.03-0.15-0.05-0.31zm-12.76-0.11q0.02-0.17 0.02-0.35 0 0.18-0.02 0.35zm12.72-1.3q0 0.07 0 0.14 0-0.07 0-0.14zm0.04-0.36q-0.01 0.05-0.02 0.1 0.01-0.05 0.02-0.1zm0.07-0.49q-0.01 0.09-0.03 0.19 0.02-0.1 0.03-0.19zm0.07-0.29q-0.02 0.08-0.04 0.15 0.02-0.07 0.04-0.15zm0.14-0.44q-0.05 0.12-0.09 0.25 0.04-0.13 0.09-0.25zm0.08-0.21q-0.02 0.05-0.05 0.11 0.03-0.06 0.05-0.11zm0.14-0.31q-0.02 0.04-0.04 0.09 0.02-0.05 0.04-0.09z"/>
		</clipPath>
		<filter x="-50%" y="-50%" width="200%" height="200%" id="f1"> <feGaussianBlur stdDeviation=".7"/> </filter>
		<filter x="-50%" y="-50%" width="200%" height="200%" id="f2"> <feGaussianBlur stdDeviation="2.7"/> </filter>
		<linearGradient id="g1" x2="1" gradientUnits="userSpaceOnUse" gradientTransform="matrix(.62,1.977,-1.976,.62,47.533,3.611)">
			<stop offset="0" stop-color="#0f3da6" stop-opacity="1"/>
			<stop offset=".952" stop-color="#3a9aff" stop-opacity="0"/>
		</linearGradient>
		<linearGradient id="g2" x2="1" gradientUnits="userSpaceOnUse" gradientTransform="matrix(.495,2.092,-2.092,.495,46.707,3.06)">
			<stop offset=".01" stop-color="#0d50e8" stop-opacity="1"/>
			<stop offset=".952" stop-color="#3a9aff" stop-opacity="0"/>
		</linearGradient>
		<filter x="-50%" y="-50%" width="200%" height="200%" id="f3"> <feGaussianBlur stdDeviation="0"/> </filter>
		<linearGradient id="g3" x2="1" gradientUnits="userSpaceOnUse" gradientTransform="matrix(1.982,3.688,-3.688,1.982,46.267,2.069)">
			<stop offset="0" stop-color="#0f3da6" stop-opacity="0"/>
			<stop offset="1" stop-color="#59abff" stop-opacity="1"/>
		</linearGradient>
		<linearGradient id="g4" x2="1" gradientUnits="userSpaceOnUse" gradientTransform="matrix(.606,2.752,-2.752,.606,46.32,2.122)">
			<stop offset="0" stop-color="#0f3da6" stop-opacity="0"/>
			<stop offset="1" stop-color="#59abff" stop-opacity="1"/>
		</linearGradient>
	</defs>
	<style>
		.s0 { fill: #ffffff } 
		.s1 { filter: url(#f1);fill: #0597ff } 
		.s2 { filter: url(#f2);fill: #0597ff } 
		.s3 { fill: url(#g1) } 
		.s4 { fill: url(#g2) } 
		.s5 { filter: url(#f3);fill: url(#g3) } 
		.s6 { filter: url(#f1);fill: url(#g4) } 
	</style>
	<path class="s0" d="m26.4 7.2c1.8 0 3.2 0.6 4.2 1.7 1 1.1 1.5 2.7 1.5 4.6v0.9h-8.7v0.1c0 1 0.3 1.9 0.8 2.5 0.6 0.6 1.4 1 2.4 1 1.4 0 2.4-0.7 2.8-1.8h2.6v0.1c-0.4 2.3-2.6 4-5.5 4-1.8 0-3.3-0.7-4.3-1.8-1.1-1.1-1.6-2.8-1.6-4.7 0-2 0.5-3.7 1.6-4.8 1-1.2 2.5-1.8 4.2-1.8zm9.7 2.1c0.8-1.3 2.2-2.1 3.9-2.1 1.6 0 2.9 0.6 3.8 1.8 0.9 1.1 1.4 2.7 1.4 4.7 0 2-0.5 3.6-1.4 4.8-0.9 1.1-2.2 1.7-3.8 1.7-1.8 0-3.2-0.8-4-2.1v1.9h-2.7v-17.2h2.8zm30.9 10.7h-2.7v-1.9c-0.8 1.3-2.2 2.1-3.9 2.1-1.6 0-2.9-0.6-3.9-1.8-0.9-1.1-1.4-2.7-1.4-4.7 0-2 0.5-3.6 1.4-4.8 1-1.1 2.3-1.7 3.9-1.7 1.7 0 3.1 0.8 3.8 2v-6.4h2.8zm-64-17.2l3.1 13.1 3.5-13.1v-0.1h2.7v0.1l3.5 13.1 3.1-13.1 0.1-0.1h2.9v0.2l-4.6 17v0.1h-2.7v-0.1l-3.6-12.7-3.7 12.7v0.1h-2.7v-0.1l-4.6-17v-0.2h3zm50.9 17.2h-2.8v-17.3h2.8zm-4.9 0h-2.8v-12.6h2.8zm11.9-2.1q0.1 0 0.2 0zm-0.3 0q0.1 0 0.2 0-0.1 0-0.2 0zm-0.2 0q0.1 0 0.2 0-0.1 0-0.2 0zm-21.2-8.4c-0.9 0-1.7 0.4-2.3 1.2-0.5 0.7-0.9 1.7-0.9 3 0 1.3 0.4 2.3 0.9 3 0.6 0.7 1.4 1.1 2.3 1.1 1 0 1.8-0.4 2.3-1.1 0.6-0.7 0.9-1.7 0.9-3 0-1.3-0.3-2.3-0.9-3.1-0.5-0.7-1.3-1.1-2.3-1.1zm21.8 0c-0.9 0-1.7 0.4-2.3 1.1-0.5 0.8-0.8 1.8-0.8 3.1 0 1.3 0.3 2.3 0.8 3 0.6 0.7 1.4 1.1 2.3 1.1 1 0 1.8-0.4 2.3-1.1 0.6-0.7 0.9-1.7 0.9-3 0-1.3-0.3-2.3-0.9-3-0.5-0.8-1.3-1.2-2.3-1.2zm-19.8 7.7q0.1-0.1 0.2-0.1-0.1 0-0.2 0.1zm16.6-2.6q0 0.2 0.1 0.3-0.1-0.1-0.1-0.3zm0-0.9q0 0.4 0 0.9 0-0.2 0-0.4v-0.5q0-0.1 0-0.1 0 0 0 0.1zm-12.7 0.8q0-0.2 0-0.3 0 0.1 0 0.3zm0-0.8q0 0.2 0 0.4 0 0 0 0v-0.4q0-0.2 0-0.5zm12.7-0.5q0 0.1 0 0.2 0-0.1 0-0.2zm0-0.3q0 0 0 0.1 0-0.1 0-0.1zm0.1-0.5q0 0.1-0.1 0.2 0.1-0.1 0.1-0.2zm-31.5-2.9c-1.7 0-2.9 1.2-3.1 3h6c0-0.9-0.3-1.6-0.8-2.2-0.5-0.5-1.3-0.8-2.1-0.8zm31.5 2.6q0 0.1 0 0.2 0-0.1 0-0.2zm0.2-0.4q-0.1 0.1-0.1 0.2 0-0.1 0.1-0.2zm0.1-0.2q-0.1 0-0.1 0.1 0-0.1 0.1-0.1zm0.1-0.4q0 0.1 0 0.1 0 0 0-0.1zm0.6-0.8q-0.1 0.2-0.3 0.3l0.1-0.1q0.1-0.1 0.2-0.2zm0.6-0.4q-0.3 0.1-0.6 0.4 0.1-0.1 0.2-0.2 0.1-0.1 0.3-0.2 0.1 0 0.1 0zm-33.3-0.5q0.1 0 0.2 0h0.1q-0.1 0-0.1 0-0.1 0-0.2 0z"/>
	<g id="Clip-Path" clip-path="url(#cp1)">
		<g>
			<g style="opacity: .17">
				<path class="s1" d="m36.1 2.6h-3.5l9.9-9 12.3 1.3 8.1 3.8-7.3 4.7c-1.1-0.2-3.5-0.5-3.9 0-0.6 0.6-0.6 2.2-0.8 3.5-0.1 1-1.1 0.9-1.6 0.8l-2.9 0.4-0.8 4.3c-0.3-0.1-0.9-0.8-1.5-2.2-0.8-1.8-1.8-2.4-3.4-2.5-1.3-0.1-3.9 0.8-4.6 1.1z"/>
			</g>
			<g>
				<path class="s2" d="m36.1 2.6h-3.5l9.9-9 12.3 1.3 8.1 3.8-7.3 4.7c-1.1-0.2-3.5-0.5-3.9 0-0.6 0.6-0.6 2.2-0.8 3.5-0.1 1-1.1 0.9-1.6 0.8l-2.9 0.4-0.8 4.3c-0.3-0.1-0.9-0.8-1.5-2.2-0.8-1.8-1.8-2.4-3.4-2.5-1.3-0.1-3.9 0.8-4.6 1.1z"/>
			</g>
		</g>
	</g>
	<g>
		<path fill-rule="evenodd" class="s3" d="m46.8 5c-1-0.4-1.4-1.6-0.9-2.5 0.4-1 1.6-1.4 2.5-0.9 1 0.4 1.3 1.5 0.9 2.5-0.5 0.9-1.6 1.3-2.5 0.9z"/>
	</g>
	<g>
		<path fill-rule="evenodd" class="s4" d="m47 5.1c-0.8-0.4-1.2-1.4-0.8-2.2 0.4-0.8 1.4-1.2 2.2-0.8 0.8 0.4 1.2 1.4 0.8 2.2-0.4 0.8-1.4 1.2-2.2 0.8z"/>
	</g>
	<g>
		<path fill-rule="evenodd" class="s5" d="m48 2c0.9 0.1 1.5 1 1.3 1.9-0.1 0.9-1 1.5-1.9 1.3-0.9-0.1-1.5-1-1.3-1.9 0.1-0.9 1-1.5 1.9-1.3z"/>
	</g>
	<g>
		<path fill-rule="evenodd" class="s6" d="m48 2c0.9 0.2 1.5 1.1 1.4 2-0.2 0.9-1.1 1.5-1.9 1.3-0.9-0.2-1.5-1-1.4-1.9 0.2-0.9 1-1.5 1.9-1.4z"/>
	</g>
</svg>