<svg width="67" height="21" viewBox="0 0 67 21" fill="none" xmlns="http://www.w3.org/2000/svg">
<path d="M26.4375 7.16162C28.1869 7.16171 29.6159 7.78044 30.6064 8.88428C31.5956 9.98684 32.1387 11.5637 32.1387 13.4653V14.4478H23.374V14.4917C23.3742 15.5488 23.6921 16.4168 24.249 17.019C24.8052 17.6203 25.6093 17.9673 26.6025 17.9673C28.0159 17.9672 29.0384 17.2571 29.3633 16.228L29.3877 16.1509H32.0156L31.9961 16.2778C31.6314 18.6096 29.4248 20.2515 26.543 20.2515C24.6949 20.2514 23.2009 19.6255 22.1699 18.4937C21.1401 17.3628 20.5822 15.7381 20.582 13.7603C20.582 11.7937 21.1488 10.1435 22.168 8.98389C23.1888 7.82281 24.6569 7.16165 26.4375 7.16162ZM36.1025 9.28955C36.8971 7.97245 38.2815 7.18506 39.9678 7.18506C41.5623 7.18515 42.8859 7.81845 43.8086 8.95557C44.7294 10.0905 45.2441 11.7187 45.2441 13.7007C45.2441 15.6882 44.7324 17.3191 43.8115 18.4556C42.8887 19.5944 41.5621 20.2279 39.9561 20.228C38.2187 20.228 36.8448 19.4336 36.0312 18.1226V20.0151H33.334V2.77295H36.1025V9.28955ZM67 20.0151H64.3027V18.1284C63.5158 19.417 62.1356 20.228 60.4141 20.228C58.8134 20.228 57.4778 19.588 56.5449 18.4468C55.614 17.3077 55.0899 15.677 55.0898 13.7007C55.0898 11.7241 55.6138 10.0956 56.542 8.95947C57.4719 7.82125 58.8017 7.18506 60.3906 7.18506C62.0846 7.18514 63.4609 7.98063 64.2207 9.2251V2.77295H67V20.0151ZM2.99902 2.85791L6.0918 15.9497L9.62793 2.85498L9.64941 2.77295H12.2715L12.2939 2.85498L15.8398 15.9507L18.9336 2.85791L18.9541 2.77295H21.9336L21.8955 2.91162L17.2949 19.9341L17.2734 20.0151H14.6172L14.5938 19.9351L10.9609 7.26416L7.33887 19.9351L7.31641 20.0151H4.64746L4.62598 19.9341L0.0371094 2.91162L0 2.77295H2.97949L2.99902 2.85791ZM53.9062 20.0151H51.1377V2.77295H53.9062V20.0151ZM49.0352 19.9839H46.2666V7.354H49.0352V19.9839ZM60.9092 17.9536C60.9674 17.9566 61.0263 17.9585 61.0859 17.9585V17.9575L60.9092 17.9536ZM60.6924 17.9351C60.7503 17.9417 60.8088 17.947 60.8682 17.9507C60.8088 17.947 60.7503 17.9417 60.6924 17.9351ZM60.4434 17.8979C60.5109 17.911 60.5797 17.9212 60.6494 17.9302C60.5797 17.9212 60.5109 17.911 60.4434 17.8979ZM39.2715 9.55225C38.3397 9.55229 37.5483 9.96027 36.9873 10.6792C36.4249 11.4002 36.0908 12.4394 36.0908 13.7007C36.0909 14.9739 36.425 16.0131 36.9873 16.731C37.548 17.4465 38.3393 17.8491 39.2715 17.8491C40.2407 17.8491 41.0189 17.4568 41.5576 16.7495C42.0989 16.0387 42.4052 15 42.4053 13.7007C42.4053 12.4132 42.0991 11.3737 41.5576 10.6597C41.0186 9.94925 40.2402 9.5523 39.2715 9.55225ZM61.0869 9.55225C60.1117 9.55225 59.3237 9.94972 58.7773 10.6606C58.2287 11.3747 57.917 12.4136 57.917 13.7007C57.917 14.9937 58.2288 16.0322 58.7773 16.7446C59.3236 17.454 60.1115 17.8491 61.0869 17.8491C62.0312 17.849 62.8158 17.449 63.3672 16.7358C63.9205 16.0199 64.2441 14.9807 64.2441 13.7007C64.2441 12.4325 63.9207 11.3935 63.3672 10.6743C62.8155 9.95775 62.0308 9.55241 61.0869 9.55225ZM41.2676 17.2271C41.3209 17.1788 41.3736 17.1293 41.4238 17.0767L41.4307 17.0688C41.3782 17.1242 41.3235 17.1766 41.2676 17.2271ZM57.8643 14.6216C57.8776 14.7252 57.8932 14.8268 57.9111 14.9263C57.8933 14.8268 57.8775 14.7252 57.8643 14.6216ZM57.8066 13.7007C57.8067 14.0028 57.8244 14.2919 57.8574 14.5669C57.8424 14.4409 57.8305 14.312 57.8223 14.1802L57.8076 13.7007C57.8076 13.6621 57.809 13.6237 57.8096 13.5854C57.809 13.6237 57.8066 13.6621 57.8066 13.7007ZM45.1035 14.5063C45.1121 14.3932 45.1182 14.2786 45.123 14.1626C45.1182 14.2786 45.112 14.3932 45.1035 14.5063ZM45.1338 13.7007C45.1338 13.8433 45.1302 13.9839 45.125 14.1226C45.1257 14.1037 45.1283 14.0849 45.1289 14.0659L45.1348 13.7007C45.1348 13.5487 45.1312 13.399 45.125 13.2515L45.1338 13.7007ZM57.8242 13.2104C57.8213 13.2551 57.8185 13.3 57.8164 13.3452C57.8185 13.3 57.8213 13.2551 57.8242 13.2104ZM57.8555 12.8501C57.8514 12.8844 57.8483 12.9189 57.8447 12.9536C57.8483 12.9189 57.8514 12.8844 57.8555 12.8501ZM57.9346 12.3618C57.9223 12.423 57.909 12.4846 57.8984 12.5474C57.909 12.4846 57.9223 12.423 57.9346 12.3618ZM26.4375 9.43506C24.7618 9.43512 23.5679 10.68 23.3984 12.4468H29.3623C29.3129 11.5693 29.0132 10.8288 28.5244 10.3032C28.0155 9.75613 27.2989 9.43515 26.4375 9.43506ZM57.999 12.0737C57.9868 12.1214 57.975 12.1695 57.9639 12.2183C57.975 12.1695 57.9868 12.1214 57.999 12.0737ZM58.1367 11.6313C58.1073 11.7129 58.0784 11.7959 58.0527 11.8813C58.0784 11.7959 58.1073 11.7129 58.1367 11.6313ZM58.2197 11.4146C58.204 11.4519 58.1887 11.4896 58.1738 11.5278C58.1887 11.4896 58.204 11.4519 58.2197 11.4146ZM58.3633 11.1089C58.3476 11.1388 58.3324 11.1691 58.3174 11.1997C58.3324 11.1691 58.3476 11.1388 58.3633 11.1089ZM58.9629 10.2827C58.8665 10.3786 58.7757 10.4823 58.6904 10.5933L58.7998 10.4595C58.8524 10.3981 58.9065 10.3388 58.9629 10.2827ZM59.5752 9.81885C59.3611 9.93932 59.164 10.0873 58.9854 10.2612C59.0426 10.2054 59.1021 10.1525 59.1631 10.1021C59.2493 10.0308 59.3391 9.96501 59.4326 9.90479C59.4793 9.87472 59.5268 9.84615 59.5752 9.81885ZM26.2725 9.32861C26.327 9.326 26.382 9.32471 26.4375 9.32471L26.5312 9.32666C26.5002 9.32581 26.4689 9.32373 26.4375 9.32373C26.382 9.32373 26.3269 9.32601 26.2725 9.32861Z" fill="black"/>
<mask id="mask0_1119_6721" style="mask-type:alpha" maskUnits="userSpaceOnUse" x="0" y="2" width="67" height="19">
<path d="M26.4375 7.16162C28.1869 7.16171 29.6159 7.78044 30.6064 8.88428C31.5956 9.98684 32.1387 11.5637 32.1387 13.4653V14.4478H23.374V14.4917C23.3742 15.5488 23.6921 16.4168 24.249 17.019C24.8052 17.6203 25.6093 17.9673 26.6025 17.9673C28.0159 17.9672 29.0384 17.2571 29.3633 16.228L29.3877 16.1509H32.0156L31.9961 16.2778C31.6314 18.6096 29.4248 20.2515 26.543 20.2515C24.6949 20.2514 23.2009 19.6255 22.1699 18.4937C21.1401 17.3628 20.5822 15.7381 20.582 13.7603C20.582 11.7937 21.1488 10.1435 22.168 8.98389C23.1888 7.82281 24.6569 7.16165 26.4375 7.16162ZM36.1025 9.28955C36.8971 7.97245 38.2815 7.18506 39.9678 7.18506C41.5623 7.18515 42.8859 7.81845 43.8086 8.95557C44.7294 10.0905 45.2441 11.7187 45.2441 13.7007C45.2441 15.6882 44.7324 17.3191 43.8115 18.4556C42.8887 19.5944 41.5621 20.2279 39.9561 20.228C38.2187 20.228 36.8448 19.4336 36.0312 18.1226V20.0151H33.334V2.77295H36.1025V9.28955ZM67 20.0151H64.3027V18.1284C63.5158 19.417 62.1356 20.228 60.4141 20.228C58.8134 20.228 57.4778 19.588 56.5449 18.4468C55.614 17.3077 55.0899 15.677 55.0898 13.7007C55.0898 11.7241 55.6138 10.0956 56.542 8.95947C57.4719 7.82125 58.8017 7.18506 60.3906 7.18506C62.0846 7.18514 63.4609 7.98063 64.2207 9.2251V2.77295H67V20.0151ZM2.99902 2.85791L6.0918 15.9497L9.62793 2.85498L9.64941 2.77295H12.2715L12.2939 2.85498L15.8398 15.9507L18.9336 2.85791L18.9541 2.77295H21.9336L21.8955 2.91162L17.2949 19.9341L17.2734 20.0151H14.6172L14.5938 19.9351L10.9609 7.26416L7.33887 19.9351L7.31641 20.0151H4.64746L4.62598 19.9341L0.0371094 2.91162L0 2.77295H2.97949L2.99902 2.85791ZM53.9062 20.0151H51.1377V2.77295H53.9062V20.0151ZM49.0352 19.9839H46.2666V7.354H49.0352V19.9839ZM60.9092 17.9536C60.9674 17.9566 61.0263 17.9585 61.0859 17.9585V17.9575L60.9092 17.9536ZM60.6924 17.9351C60.7503 17.9417 60.8088 17.947 60.8682 17.9507C60.8088 17.947 60.7503 17.9417 60.6924 17.9351ZM60.4434 17.8979C60.5109 17.911 60.5797 17.9212 60.6494 17.9302C60.5797 17.9212 60.5109 17.911 60.4434 17.8979ZM39.2715 9.55225C38.3397 9.55229 37.5483 9.96027 36.9873 10.6792C36.4249 11.4002 36.0908 12.4394 36.0908 13.7007C36.0909 14.9739 36.425 16.0131 36.9873 16.731C37.548 17.4465 38.3393 17.8491 39.2715 17.8491C40.2407 17.8491 41.0189 17.4568 41.5576 16.7495C42.0989 16.0387 42.4052 15 42.4053 13.7007C42.4053 12.4132 42.0991 11.3737 41.5576 10.6597C41.0186 9.94925 40.2402 9.5523 39.2715 9.55225ZM61.0869 9.55225C60.1117 9.55225 59.3237 9.94972 58.7773 10.6606C58.2287 11.3747 57.917 12.4136 57.917 13.7007C57.917 14.9937 58.2288 16.0322 58.7773 16.7446C59.3236 17.454 60.1115 17.8491 61.0869 17.8491C62.0312 17.849 62.8158 17.449 63.3672 16.7358C63.9205 16.0199 64.2441 14.9807 64.2441 13.7007C64.2441 12.4325 63.9207 11.3935 63.3672 10.6743C62.8155 9.95775 62.0308 9.55241 61.0869 9.55225ZM41.2676 17.2271C41.3209 17.1788 41.3736 17.1293 41.4238 17.0767L41.4307 17.0688C41.3782 17.1242 41.3235 17.1766 41.2676 17.2271ZM57.8643 14.6216C57.8776 14.7252 57.8932 14.8268 57.9111 14.9263C57.8933 14.8268 57.8775 14.7252 57.8643 14.6216ZM57.8066 13.7007C57.8067 14.0028 57.8244 14.2919 57.8574 14.5669C57.8424 14.4409 57.8305 14.312 57.8223 14.1802L57.8076 13.7007C57.8076 13.6621 57.809 13.6237 57.8096 13.5854C57.809 13.6237 57.8066 13.6621 57.8066 13.7007ZM45.1035 14.5063C45.1121 14.3932 45.1182 14.2786 45.123 14.1626C45.1182 14.2786 45.112 14.3932 45.1035 14.5063ZM45.1338 13.7007C45.1338 13.8433 45.1302 13.9839 45.125 14.1226C45.1257 14.1037 45.1283 14.0849 45.1289 14.0659L45.1348 13.7007C45.1348 13.5487 45.1312 13.399 45.125 13.2515L45.1338 13.7007ZM57.8242 13.2104C57.8213 13.2551 57.8185 13.3 57.8164 13.3452C57.8185 13.3 57.8213 13.2551 57.8242 13.2104ZM57.8555 12.8501C57.8514 12.8844 57.8483 12.9189 57.8447 12.9536C57.8483 12.9189 57.8514 12.8844 57.8555 12.8501ZM57.9346 12.3618C57.9223 12.423 57.909 12.4846 57.8984 12.5474C57.909 12.4846 57.9223 12.423 57.9346 12.3618ZM26.4375 9.43506C24.7618 9.43512 23.5679 10.68 23.3984 12.4468H29.3623C29.3129 11.5693 29.0132 10.8288 28.5244 10.3032C28.0155 9.75613 27.2989 9.43515 26.4375 9.43506ZM57.999 12.0737C57.9868 12.1214 57.975 12.1695 57.9639 12.2183C57.975 12.1695 57.9868 12.1214 57.999 12.0737ZM58.1367 11.6313C58.1073 11.7129 58.0784 11.7959 58.0527 11.8813C58.0784 11.7959 58.1073 11.7129 58.1367 11.6313ZM58.2197 11.4146C58.204 11.4519 58.1887 11.4896 58.1738 11.5278C58.1887 11.4896 58.204 11.4519 58.2197 11.4146ZM58.3633 11.1089C58.3476 11.1388 58.3324 11.1691 58.3174 11.1997C58.3324 11.1691 58.3476 11.1388 58.3633 11.1089ZM58.9629 10.2827C58.8665 10.3786 58.7757 10.4823 58.6904 10.5933L58.7998 10.4595C58.8524 10.3981 58.9065 10.3388 58.9629 10.2827ZM59.5752 9.81885C59.3611 9.93932 59.164 10.0873 58.9854 10.2612C59.0426 10.2054 59.1021 10.1525 59.1631 10.1021C59.2493 10.0308 59.3391 9.96501 59.4326 9.90479C59.4793 9.87472 59.5268 9.84615 59.5752 9.81885ZM26.2725 9.32861C26.327 9.326 26.382 9.32471 26.4375 9.32471L26.5312 9.32666C26.5002 9.32581 26.4689 9.32373 26.4375 9.32373C26.382 9.32373 26.3269 9.32601 26.2725 9.32861Z" fill="black"/>
</mask>
<g mask="url(#mask0_1119_6721)">
<g opacity="0.17" filter="url(#filter0_f_1119_6721)">
<path d="M36.1377 2.6198H32.5596L42.4684 -6.4082L54.7993 -5.08703L62.8915 -1.34371L55.57 3.39048C54.469 3.18864 52.1459 2.90606 51.6615 3.39048C51.056 3.99602 51.056 5.64749 50.8908 6.91361C50.7587 7.92651 49.8082 7.84944 49.3495 7.68429L46.4319 8.12468L45.5511 12.4185C45.3125 12.2533 44.6813 11.5707 44.0648 10.1615C43.2941 8.39993 42.3032 7.84944 40.7068 7.68429C39.4297 7.55217 36.78 8.47332 36.1377 8.78527V2.6198Z" fill="#0597FF"/>
</g>
<g filter="url(#filter1_f_1119_6721)">
<path d="M36.1377 2.6198H32.5596L42.4684 -6.4082L54.7993 -5.08703L62.8915 -1.34371L55.57 3.39048C54.469 3.18864 52.1459 2.90606 51.6615 3.39048C51.056 3.99602 51.056 5.64749 50.8908 6.91361C50.7587 7.92651 49.8082 7.84944 49.3495 7.68429L46.4319 8.12468L45.5511 12.4185C45.3125 12.2533 44.6813 11.5707 44.0648 10.1615C43.2941 8.39993 42.3032 7.84944 40.7068 7.68429C39.4297 7.55217 36.78 8.47332 36.1377 8.78527V2.6198Z" fill="#0597FF"/>
</g>
</g>
<g filter="url(#filter2_f_1119_6721)">
<ellipse cx="47.5933" cy="3.27857" rx="1.8861" ry="1.90568" transform="rotate(25.4025 47.5933 3.27857)" fill="url(#paint0_linear_1119_6721)"/>
</g>
<g filter="url(#filter3_f_1119_6721)">
<circle cx="47.6964" cy="3.60892" r="1.65146" transform="rotate(25.4025 47.6964 3.60892)" fill="url(#paint1_linear_1119_6721)"/>
</g>
<g filter="url(#filter4_f_1119_6721)">
<circle cx="47.6963" cy="3.60874" r="1.65146" transform="rotate(-169.598 47.6963 3.60874)" fill="url(#paint2_linear_1119_6721)"/>
</g>
<g filter="url(#filter5_f_1119_6721)">
<circle cx="47.7491" cy="3.66147" r="1.65146" transform="rotate(-169.598 47.7491 3.66147)" fill="url(#paint3_linear_1119_6721)"/>
</g>
<defs>
<filter id="filter0_f_1119_6721" x="31.2494" y="-7.71836" width="32.9524" height="21.447" filterUnits="userSpaceOnUse" color-interpolation-filters="sRGB">
<feFlood flood-opacity="0" result="BackgroundImageFix"/>
<feBlend mode="normal" in="SourceGraphic" in2="BackgroundImageFix" result="shape"/>
<feGaussianBlur stdDeviation="0.655081" result="effect1_foregroundBlur_1119_6721"/>
</filter>
<filter id="filter1_f_1119_6721" x="27.1648" y="-11.803" width="41.1216" height="29.6162" filterUnits="userSpaceOnUse" color-interpolation-filters="sRGB">
<feFlood flood-opacity="0" result="BackgroundImageFix"/>
<feBlend mode="normal" in="SourceGraphic" in2="BackgroundImageFix" result="shape"/>
<feGaussianBlur stdDeviation="2.69739" result="effect1_foregroundBlur_1119_6721"/>
</filter>
<filter id="filter2_f_1119_6721" x="45.2517" y="0.924576" width="4.68307" height="4.70798" filterUnits="userSpaceOnUse" color-interpolation-filters="sRGB">
<feFlood flood-opacity="0" result="BackgroundImageFix"/>
<feBlend mode="normal" in="SourceGraphic" in2="BackgroundImageFix" result="shape"/>
<feGaussianBlur stdDeviation="0" result="effect1_foregroundBlur_1119_6721"/>
</filter>
<filter id="filter3_f_1119_6721" x="44.5691" y="0.481723" width="6.25433" height="6.25433" filterUnits="userSpaceOnUse" color-interpolation-filters="sRGB">
<feFlood flood-opacity="0" result="BackgroundImageFix"/>
<feBlend mode="normal" in="SourceGraphic" in2="BackgroundImageFix" result="shape"/>
<feGaussianBlur stdDeviation="0" result="effect1_foregroundBlur_1119_6721"/>
</filter>
<filter id="filter4_f_1119_6721" x="45.1637" y="1.07625" width="5.06527" height="5.06478" filterUnits="userSpaceOnUse" color-interpolation-filters="sRGB">
<feFlood flood-opacity="0" result="BackgroundImageFix"/>
<feBlend mode="normal" in="SourceGraphic" in2="BackgroundImageFix" result="shape"/>
<feGaussianBlur stdDeviation="0.0330293" result="effect1_foregroundBlur_1119_6721"/>
</filter>
<filter id="filter5_f_1119_6721" x="44.6879" y="0.600516" width="6.12221" height="6.12172" filterUnits="userSpaceOnUse" color-interpolation-filters="sRGB">
<feFlood flood-opacity="0" result="BackgroundImageFix"/>
<feBlend mode="normal" in="SourceGraphic" in2="BackgroundImageFix" result="shape"/>
<feGaussianBlur stdDeviation="0.704625" result="effect1_foregroundBlur_1119_6721"/>
</filter>
<linearGradient id="paint0_linear_1119_6721" x1="47.681" y1="3.60445" x2="49.0894" y2="5.12444" gradientUnits="userSpaceOnUse">
<stop stop-color="#0F3DA6"/>
<stop offset="0.951923" stop-color="#3A9AFF" stop-opacity="0"/>
</linearGradient>
<linearGradient id="paint1_linear_1119_6721" x1="46.5675" y1="3.53753" x2="47.9124" y2="5.21461" gradientUnits="userSpaceOnUse">
<stop offset="0.00961538" stop-color="#0D50E8"/>
<stop offset="0.951923" stop-color="#3A9AFF" stop-opacity="0"/>
</linearGradient>
<linearGradient id="paint2_linear_1119_6721" x1="49.3804" y1="4.86499" x2="46.7652" y2="1.59517" gradientUnits="userSpaceOnUse">
<stop stop-color="#0F3DA6" stop-opacity="0"/>
<stop offset="1" stop-color="#59ABFF"/>
</linearGradient>
<linearGradient id="paint3_linear_1119_6721" x1="49.4331" y1="4.91773" x2="48.3405" y2="2.31986" gradientUnits="userSpaceOnUse">
<stop stop-color="#0F3DA6" stop-opacity="0"/>
<stop offset="1" stop-color="#59ABFF"/>
</linearGradient>
</defs>
</svg>
